<?xml version="1.0" encoding="UTF-8"?>
<!-- め (me), hiragana. Outline from Klee One, (c) Fontworks Inc.,
     licensed under the SIL Open Font License 1.1 — see
     public/fonts/KleeOne-OFL.txt. Drawn as a path, so this file needs no
     font installed to render. Generated by scripts/glyphs.mjs. -->
<svg xmlns="http://www.w3.org/2000/svg" viewBox="0 0 1000 1000"
     width="1000" height="1000" role="img" aria-label="め (me), hiragana">
  <title>め - me</title>
  <rect width="1000" height="1000" fill="#FFFEFB"/>
  <path d="M0 500H1000M500 0V1000" stroke="#C6D2C6"
        stroke-width="2" stroke-dasharray="14 18"/>
  <rect x="1" y="1" width="998" height="998" fill="none"
        stroke="#8FA893" stroke-width="2"/>
  <path d="M868 329L868 337Q868 403 837 453.5Q806 504 753 532Q700 560 635 560Q630 560 625 559.5Q620 559 615 559Q624 581 633 607.5Q642 634 648 658Q654 682 654 694Q654 705 648.5 711.5Q643 718 627 725Q613 733 603 733Q597 733 594 728Q593 727 593 724Q593 719 597 712Q601 705 601 696L601 693Q596 659 584 623.5Q572 588 558 553Q503 544 446.5 524Q390 504 342 477Q337 512 332 546Q327 580 324 612Q323 624 319 632.5Q315 641 301 645Q296 647 289 648.5Q282 650 276 650Q267 650 264 644Q264 643 263.5 642Q263 641 263 640Q263 635 269 630Q275 625 277 605Q281 567 286.5 528Q292 489 299 450Q235 403 200.5 356.5Q166 310 152.5 271.5Q139 233 139 208Q139 198 145 176Q151 154 162 129.5Q173 105 188.5 88Q204 71 222 71Q234 71 253 82Q272 93 293 108.5Q314 124 332 140Q350 156 361 166L373 127Q378 111 385 104.5Q392 98 399 98Q413 98 418.5 110.5Q424 123 424 136Q424 143 422 149Q418 160 412 174.5Q406 189 401 207Q452 264 502.5 341Q553 418 596 515Q603 516 609.5 516Q616 516 622 516Q677 516 720 495Q763 474 788 433.5Q813 393 813 333L813 327Q812 273 786 223Q760 173 717.5 130.5Q675 88 624 54.5Q573 21 521 -1Q502 -9 502 -20Q502 -29 516 -29Q526 -29 555 -19Q584 -9 623.5 11Q663 31 704.5 61Q746 91 782.5 131Q819 171 842.5 220.5Q866 270 868 329ZM540 508Q527 474 501.5 428.5Q476 383 445.5 338Q415 293 386 258Q377 296 367.5 340.5Q358 385 350 432Q392 458 445 478.5Q498 499 540 508ZM348 213Q341 206 324.5 192Q308 178 289 162.5Q270 147 253.5 136Q237 125 230 125Q223 125 215.5 136.5Q208 148 201 163.5Q194 179 190 192Q186 205 186 208Q186 241 202 276Q218 311 245.5 344.5Q273 378 307 403Q325 299 348 213Z" fill="#202521"
        transform="translate(0.00 841.28) scale(1.0000 -1.0000)"/>
</svg>
