<?xml version="1.0" encoding="UTF-8"?>
<!-- キ (ki), katakana. Outline from Klee One, (c) Fontworks Inc.,
     licensed under the SIL Open Font License 1.1 — see
     public/fonts/KleeOne-OFL.txt. Drawn as a path, so this file needs no
     font installed to render. Generated by scripts/glyphs.mjs. -->
<svg xmlns="http://www.w3.org/2000/svg" viewBox="0 0 1000 1000"
     width="1000" height="1000" role="img" aria-label="キ (ki), katakana">
  <title>キ - ki</title>
  <rect width="1000" height="1000" fill="#FFFEFB"/>
  <path d="M0 500H1000M500 0V1000" stroke="#C6D2C6"
        stroke-width="2" stroke-dasharray="14 18"/>
  <rect x="1" y="1" width="998" height="998" fill="none"
        stroke="#8FA893" stroke-width="2"/>
  <path d="M743 549L743 552Q742 563 728.5 567.5Q715 572 703 572Q700 572 695.5 570.5Q691 569 677 564Q672 561 647.5 554.5Q623 548 586.5 539.5Q550 531 508 522Q500 559 493 594Q486 629 481 653.5Q476 678 474 683Q470 696 465 701.5Q460 707 446 709Q438 711 431 712Q424 713 418 713Q405 713 404 705L404 704Q404 697 409 694Q414 691 420 685Q423 683 426.5 670.5Q430 658 438 622.5Q446 587 462 513Q446 510 412.5 503Q379 496 341.5 488.5Q304 481 275 475.5Q246 470 238 470Q230 470 223.5 470.5Q217 471 212 471Q204 471 201 468Q199 467 199 463Q199 456 213.5 442Q228 428 244 428Q247 428 255.5 429Q264 430 286.5 434Q309 438 353 447Q397 456 471 472L503 323Q430 308 360 291.5Q290 275 221 258Q204 254 192 254Q186 254 182 254.5Q178 255 174 255Q173 255 167 253Q164 252 164 247Q164 245 170.5 235.5Q177 226 187.5 217.5Q198 209 210 209Q220 209 239 215Q293 230 362.5 247.5Q432 265 511 281Q523 229 530.5 195Q538 161 543.5 134.5Q549 108 555.5 78.5Q562 49 571 7Q573 -3 573 -11.5Q573 -20 574 -23Q576 -25 580 -33Q584 -41 590.5 -48.5Q597 -56 606 -56Q620 -56 622.5 -43.5Q625 -31 625 -24Q625 -23 624.5 -18.5Q624 -14 621 1.5Q618 17 610.5 50.5Q603 84 590.5 142Q578 200 558 291Q625 305 695.5 317Q766 329 839 338Q864 341 864 359Q864 361 863.5 362Q863 363 863 364Q861 374 844 380Q827 386 818 386Q809 385 801 381.5Q793 378 785 376Q725 366 666 355Q607 344 549 333L517 481Q578 495 630 506.5Q682 518 706 524Q717 527 730 531.5Q743 536 743 549Z" fill="#202521"
        transform="translate(0.00 841.28) scale(1.0000 -1.0000)"/>
</svg>
