<?xml version="1.0" encoding="UTF-8"?>
<!-- ナ (na), katakana. Outline from Klee One, (c) Fontworks Inc.,
     licensed under the SIL Open Font License 1.1 — see
     public/fonts/KleeOne-OFL.txt. Drawn as a path, so this file needs no
     font installed to render. Generated by scripts/glyphs.mjs. -->
<svg xmlns="http://www.w3.org/2000/svg" viewBox="0 0 1000 1000"
     width="1000" height="1000" role="img" aria-label="ナ (na), katakana">
  <title>ナ - na</title>
  <rect width="1000" height="1000" fill="#FFFEFB"/>
  <path d="M0 500H1000M500 0V1000" stroke="#C6D2C6"
        stroke-width="2" stroke-dasharray="14 18"/>
  <rect x="1" y="1" width="998" height="998" fill="none"
        stroke="#8FA893" stroke-width="2"/>
  <path d="M842 502L839 502Q831 502 823 500Q815 498 807 497Q746 495 681.5 490Q617 485 552 479Q555 529 555 582Q555 601 555 621Q555 641 554 661Q554 681 549.5 689Q545 697 531 701Q518 706 503 706Q487 706 484 699L484 697Q484 692 488 686.5Q492 681 496 677Q499 674 500.5 658.5Q502 643 502.5 623Q503 603 503 587Q503 571 503 566Q503 518 500 474Q424 466 350 457.5Q276 449 209 441Q203 440 198 440Q193 440 188 440Q177 440 170.5 441Q164 442 161 442Q158 442 157 441Q153 440 153 433Q153 430 158 420Q163 410 173 400.5Q183 391 199 391Q204 391 209 391.5Q214 392 220 393Q272 401 343 410.5Q414 420 496 428Q485 327 453 250.5Q421 174 367.5 114Q314 54 238 1Q219 -13 219 -23Q219 -26 222 -29Q227 -32 233 -32Q246 -32 259 -24Q355 31 415 97.5Q475 164 507 247Q539 330 549 433Q624 440 702 444.5Q780 449 855 450Q867 450 873.5 457Q880 464 880 471Q880 475 879 477Q876 485 864.5 493Q853 501 842 502Z" fill="#202521"
        transform="translate(0.00 841.28) scale(1.0000 -1.0000)"/>
</svg>
