<?xml version="1.0" encoding="UTF-8"?>
<!-- ホ (ho), katakana. Outline from Klee One, (c) Fontworks Inc.,
     licensed under the SIL Open Font License 1.1 — see
     public/fonts/KleeOne-OFL.txt. Drawn as a path, so this file needs no
     font installed to render. Generated by scripts/glyphs.mjs. -->
<svg xmlns="http://www.w3.org/2000/svg" viewBox="0 0 1000 1000"
     width="1000" height="1000" role="img" aria-label="ホ (ho), katakana">
  <title>ホ - ho</title>
  <rect width="1000" height="1000" fill="#FFFEFB"/>
  <path d="M0 500H1000M500 0V1000" stroke="#C6D2C6"
        stroke-width="2" stroke-dasharray="14 18"/>
  <rect x="1" y="1" width="998" height="998" fill="none"
        stroke="#8FA893" stroke-width="2"/>
  <path d="M479 121L479 49Q469 54 450.5 64.5Q432 75 411.5 86.5Q391 98 374.5 107.5Q358 117 350 121Q344 124 339 124Q333 124 330 119.5Q327 115 327 110Q327 104 331 100Q335 96 351.5 83.5Q368 71 390 54Q412 37 433.5 21Q455 5 468 -6Q475 -10 482 -14Q489 -18 496 -18Q500 -18 514 -10Q528 -2 528 23Q528 28 528 58Q528 88 527.5 136Q527 184 527 241.5Q527 299 526.5 359.5Q526 420 526 474Q585 480 649 485.5Q713 491 786 495Q798 496 804.5 502.5Q811 509 811 517Q811 521 810 523Q807 531 794 537.5Q781 544 772 545L769 545Q760 545 751.5 542.5Q743 540 735 539Q676 535 625 529.5Q574 524 526 519L526 652Q526 657 526.5 662.5Q527 668 527 672Q527 683 523 692Q519 701 504 705Q496 707 488 709Q480 711 474 711Q465 711 463 705Q462 703 462 701Q462 697 467 690Q472 683 475 676.5Q478 670 478 662L478 513Q416 506 354 496.5Q292 487 221 476L201 476Q195 476 190 475.5Q185 475 182 473Q177 471 177 464Q177 463 182.5 454.5Q188 446 197 438Q206 430 218 430Q225 430 231 431.5Q237 433 243 434Q298 443 356 452Q414 461 478 468Q479 410 479 346Q479 282 479 223Q479 164 479 121ZM853 133Q853 143 835 167.5Q817 192 790.5 222.5Q764 253 737 282Q710 311 691 330.5Q672 350 670 352Q666 355 660 355Q651 355 641 349Q631 343 631 333Q631 326 640 318Q658 301 681.5 275Q705 249 728.5 220Q752 191 772.5 163Q793 135 806 114Q810 106 821 106Q832 106 842.5 114.5Q853 123 853 133ZM171 83Q184 83 206 104Q228 125 253 157Q278 189 301 222.5Q324 256 338.5 281Q353 306 353 313Q353 321 345 328Q337 335 327 335Q315 335 309 324Q277 265 237.5 217.5Q198 170 146 125Q138 118 138 109Q138 99 149 91Q160 83 171 83Z" fill="#202521"
        transform="translate(0.00 841.28) scale(1.0000 -1.0000)"/>
</svg>
