<?xml version="1.0" encoding="UTF-8"?>
<!-- ユ (yu), katakana. Outline from Klee One, (c) Fontworks Inc.,
     licensed under the SIL Open Font License 1.1 — see
     public/fonts/KleeOne-OFL.txt. Drawn as a path, so this file needs no
     font installed to render. Generated by scripts/glyphs.mjs. -->
<svg xmlns="http://www.w3.org/2000/svg" viewBox="0 0 1000 1000"
     width="1000" height="1000" role="img" aria-label="ユ (yu), katakana">
  <title>ユ - yu</title>
  <rect width="1000" height="1000" fill="#FFFEFB"/>
  <path d="M0 500H1000M500 0V1000" stroke="#C6D2C6"
        stroke-width="2" stroke-dasharray="14 18"/>
  <rect x="1" y="1" width="998" height="998" fill="none"
        stroke="#8FA893" stroke-width="2"/>
  <path d="M872 158L872 159Q872 171 854 181.5Q836 192 816 192Q809 192 802.5 189.5Q796 187 789 187Q761 186 723.5 184.5Q686 183 643 180Q647 209 653.5 251Q660 293 667 339.5Q674 386 680.5 429.5Q687 473 691 504Q692 507 694.5 511.5Q697 516 698 519Q701 524 701 528Q701 541 685 550.5Q669 560 654 560L650 560Q618 556 574 550.5Q530 545 482 540Q434 535 389.5 530Q345 525 311 522Q308 521 305 521Q302 521 300 521Q293 521 287.5 522Q282 523 274 524Q270 525 265.5 527Q261 529 256 529Q249 529 247.5 525.5Q246 522 246 521Q246 519 251 507Q256 495 267 484.5Q278 474 296 474Q299 474 301.5 474.5Q304 475 307 475Q387 483 471.5 492.5Q556 502 638 512Q617 378 606 296Q595 214 590 177Q520 173 446.5 167Q373 161 307.5 155Q242 149 194 144Q190 143 186.5 143Q183 143 180 143Q161 143 152.5 147Q144 151 138 151Q130 151 130 144Q130 138 135.5 126.5Q141 115 151.5 106Q162 97 176 97Q179 97 182.5 97.5Q186 98 190 98Q344 114 511 125.5Q678 137 834 141Q855 142 863.5 145Q872 148 872 158Z" fill="#202521"
        transform="translate(0.00 841.28) scale(1.0000 -1.0000)"/>
</svg>
